<svg width="64" height="64" viewBox="0 0 64 64" xmlns="http://www.w3.org/2000/svg">
  <!-- 背景円 -->
  <circle cx="32" cy="32" r="30" fill="#4CAF50" stroke="#fff" stroke-width="2"/>
  
  <!-- 顔の輪郭 -->
  <circle cx="32" cy="28" r="18" fill="#FFE0B2"/>
  
  <!-- 目 -->
  <circle cx="26" cy="24" r="3" fill="#333"/>
  <circle cx="38" cy="24" r="3" fill="#333"/>
  
  <!-- 目のハイライト -->
  <circle cx="27" cy="23" r="1" fill="#fff"/>
  <circle cx="39" cy="23" r="1" fill="#fff"/>
  
  <!-- 口 -->
  <path d="M 26 32 Q 32 38 38 32" stroke="#333" stroke-width="2" fill="none" stroke-linecap="round"/>
  
  <!-- ほっぺ -->
  <circle cx="22" cy="30" r="2" fill="#FFCDD2" opacity="0.8"/>
  <circle cx="42" cy="30" r="2" fill="#FFCDD2" opacity="0.8"/>
  
  <!-- 耳 -->
  <circle cx="20" cy="20" r="6" fill="#FFE0B2"/>
  <circle cx="44" cy="20" r="6" fill="#FFE0B2"/>
  
  <!-- 耳の内側 -->
  <circle cx="20" cy="20" r="3" fill="#FFCDD2"/>
  <circle cx="44" cy="20" r="3" fill="#FFCDD2"/>
  
  <!-- スピーカーアイコン -->
  <g transform="translate(32, 45)">
    <!-- スピーカーボディ -->
    <rect x="-8" y="-4" width="6" height="8" fill="#fff" rx="1"/>
    <!-- スピーカーホーン -->
    <path d="M -2 -6 L 4 -2 L 4 2 L -2 6 Z" fill="#fff"/>
    <!-- 音波 -->
    <path d="M 4 -4 Q 8 -4 8 0 Q 8 4 4 4" stroke="#fff" stroke-width="2" fill="none"/>
    <path d="M 4 -6 Q 10 -6 10 0 Q 10 6 4 6" stroke="#fff" stroke-width="1.5" fill="none"/>
  </g>
  
  <!-- 装飾的なハート -->
  <g transform="translate(16, 16)">
    <path d="M 0 2 C 0 0, 2 0, 2 2 C 2 0, 4 0, 4 2 C 4 4, 2 6, 0 2 Z" fill="#FFCDD2" opacity="0.6"/>
  </g>
  
  <g transform="translate(48, 16)">
    <path d="M 0 2 C 0 0, 2 0, 2 2 C 2 0, 4 0, 4 2 C 4 4, 2 6, 0 2 Z" fill="#FFCDD2" opacity="0.6"/>
  </g>
</svg>
